<?xml version="1.0" standalone="no"?>
<!DOCTYPE svg PUBLIC "-//W3C//DTD SVG 20010904//EN"
 "http://www.w3.org/TR/2001/REC-SVG-20010904/DTD/svg10.dtd">
<svg version="1.0" xmlns="http://www.w3.org/2000/svg"
 width="512.000000pt" height="512.000000pt" viewBox="0 0 512.000000 512.000000"
 preserveAspectRatio="xMidYMid meet">

<g transform="translate(0.000000,512.000000) scale(0.100000,-0.100000)"
fill="#000000" stroke="none">
<path d="M502 5104 c-15 -10 -22 -25 -22 -48 0 -30 100 -149 940 -1120 l940
-1086 0 -1179 0 -1180 -47 -6 c-87 -11 -197 -37 -240 -55 -38 -17 -48 -28 -44
-52 0 -4 -25 -12 -57 -18 -280 -55 -395 -127 -321 -201 53 -53 232 -104 478
-136 192 -25 670 -25 862 0 588 76 673 238 173 333 -73 14 -92 21 -100 38 -13
30 -68 53 -171 72 -48 8 -98 18 -110 20 l-23 4 0 1180 0 1180 940 1086 c837
968 940 1090 940 1120 0 69 176 64 -2080 64 -1826 0 -2038 -2 -2058 -16z
m3918 -122 c0 -4 -381 -449 -848 -987 l-847 -980 -165 0 -165 0 -847 980
c-467 538 -848 983 -848 987 0 4 837 8 1860 8 1023 0 1860 -4 1860 -8z"/>
<path d="M1985 4686 c-42 -18 -83 -69 -91 -112 -21 -111 52 -204 161 -204 164
0 227 204 93 303 -34 26 -121 33 -163 13z m138 -81 c33 -34 40 -72 19 -115
-44 -91 -182 -58 -182 43 0 58 38 97 96 97 31 0 48 -6 67 -25z"/>
<path d="M2765 4545 c-76 -27 -116 -99 -100 -182 9 -48 70 -108 119 -117 97
-18 186 56 186 154 0 107 -104 181 -205 145z m88 -67 c33 -17 46 -39 47 -76 0
-45 -13 -67 -49 -82 -60 -25 -121 15 -121 79 1 70 65 111 123 79z"/>
<path d="M2337 4226 c-72 -26 -126 -101 -127 -173 l0 -33 -74 0 c-91 0 -268
30 -403 68 -102 29 -102 29 -84 6 10 -12 197 -230 416 -483 l399 -461 96 0 96
0 417 482 c281 325 413 485 404 489 -7 4 -93 17 -192 29 -151 19 -213 22 -385
17 -146 -3 -222 -10 -264 -21 l-59 -17 -30 36 c-16 19 -41 42 -56 49 -42 22
-111 28 -154 12z m126 -75 c42 -27 60 -59 60 -105 0 -51 -23 -89 -68 -110 -41
-20 -68 -20 -109 -1 -84 40 -88 168 -7 218 35 22 90 21 124 -2z"/>
</g>
</svg>
