<?xml version="1.0" standalone="no"?>
<!DOCTYPE svg PUBLIC "-//W3C//DTD SVG 20010904//EN"
 "http://www.w3.org/TR/2001/REC-SVG-20010904/DTD/svg10.dtd">
<svg version="1.0" xmlns="http://www.w3.org/2000/svg"
 width="626.000000pt" height="626.000000pt" viewBox="0 0 626.000000 626.000000"
 preserveAspectRatio="xMidYMid meet">

<g transform="translate(0.000000,626.000000) scale(0.100000,-0.100000)"
fill="#000000" stroke="none">
<path d="M2954 5875 c-71 -36 -175 -125 -234 -203 -28 -37 -75 -116 -105 -177
-95 -194 -132 -369 -122 -580 7 -146 25 -222 82 -341 49 -101 122 -184 199
-225 40 -21 49 -32 72 -89 26 -63 26 -69 20 -215 -3 -82 -9 -167 -12 -187 l-7
-38 -61 0 c-40 0 -70 -6 -84 -16 -27 -19 -85 -103 -142 -207 l-43 -78 -39 71
c-22 40 -38 73 -36 74 2 2 30 17 64 35 65 34 134 87 134 102 0 5 -25 9 -55 9
-59 0 -60 1 -46 28 6 9 17 43 27 74 16 54 16 59 0 84 -16 23 -16 27 -2 43 9
10 16 27 16 39 0 29 17 36 30 12 14 -26 65 -27 79 -1 18 32 -9 55 -56 49 -41
-6 -78 6 -68 23 4 5 16 9 29 9 35 0 60 33 46 59 -6 12 -20 21 -30 21 -24 0
-60 -34 -60 -55 0 -8 -4 -15 -10 -15 -20 0 -9 30 23 62 41 40 50 63 37 89 -14
25 -42 24 -65 -1 -14 -15 -16 -29 -11 -60 6 -39 5 -40 -21 -40 -16 0 -39 -3
-53 -6 l-25 -6 22 19 c26 21 135 184 128 191 -3 3 -22 -2 -42 -11 -21 -9 -54
-19 -73 -22 -19 -4 -50 -16 -69 -26 -18 -11 -35 -18 -37 -16 -7 7 67 87 81 87
7 0 27 16 45 37 l32 36 -4 106 c-3 76 -9 115 -22 139 l-17 34 -29 -60 c-15
-33 -33 -63 -39 -66 -6 -4 -21 -26 -33 -49 -20 -38 -23 -40 -26 -18 -6 38 27
99 59 110 33 11 46 48 29 80 -20 38 -70 17 -70 -30 0 -38 -32 -103 -38 -76 -2
10 1 32 7 49 34 97 -15 201 -85 184 -39 -10 -41 -48 -5 -111 17 -30 29 -55 27
-55 -3 0 -22 11 -42 25 -41 28 -55 30 -72 13 -19 -19 -14 -56 9 -69 17 -9 32
-8 63 1 37 11 41 10 58 -10 23 -29 19 -33 -19 -18 -45 17 -83 -1 -83 -41 0
-34 13 -46 60 -56 60 -12 67 -15 78 -40 15 -33 -1 -33 -40 0 -16 14 -36 25
-43 25 -19 0 -28 -56 -23 -135 3 -53 10 -72 37 -110 18 -25 31 -49 27 -52 -12
-13 -57 30 -82 79 -20 40 -25 59 -20 92 8 48 -11 83 -38 73 -23 -9 -20 -58 5
-102 12 -20 19 -38 16 -41 -10 -10 -34 10 -76 64 -46 57 -81 70 -81 28 0 -27
9 -36 54 -51 16 -5 32 -17 34 -25 4 -12 2 -13 -9 -2 -32 30 -107 0 -79 -33 19
-23 47 -27 79 -10 27 14 35 14 66 1 19 -8 35 -20 35 -25 0 -13 3 -13 -40 -1
-51 15 -92 4 -88 -23 2 -18 11 -23 46 -25 40 -3 53 -14 32 -27 -5 -3 -10 -16
-10 -29 0 -20 -5 -22 -47 -22 -47 1 -48 0 -70 -44 -30 -61 -29 -105 2 -135 13
-14 29 -25 35 -25 23 0 8 -18 -30 -35 -22 -10 -47 -26 -56 -36 -25 -28 -54
-25 -54 6 0 14 -10 33 -21 43 -12 9 -36 29 -54 45 -25 21 -43 27 -78 27 -65 0
-159 -26 -179 -50 -10 -12 -28 -20 -48 -20 -50 0 -70 -16 -70 -55 0 -31 -21
-65 -39 -65 -5 0 -20 -12 -35 -26 -14 -15 -26 -22 -26 -16 0 6 4 14 10 17 14
9 31 80 24 99 -8 22 -41 20 -54 -3 -5 -11 -10 -39 -11 -63 l-1 -43 -14 33
c-14 31 -13 37 7 78 17 37 19 47 8 60 -7 8 -22 14 -33 12 -18 -3 -21 -9 -18
-52 3 -57 -3 -56 -21 4 -14 50 -38 70 -64 54 -28 -18 -21 -46 17 -72 34 -22
70 -72 52 -72 -4 0 -17 7 -28 15 -22 17 -90 20 -100 4 -13 -22 25 -43 79 -44
55 0 67 -6 124 -59 32 -29 47 -86 24 -86 -6 0 -30 18 -56 40 -47 40 -81 53
-172 65 -57 7 -66 -2 -43 -46 15 -27 -2 -23 -23 6 -15 22 -16 30 -6 64 10 34
9 44 -5 66 -18 28 -28 30 -57 15 -25 -14 -24 -37 6 -85 32 -53 31 -65 -3 -32
-15 15 -35 27 -44 27 -23 0 -41 -26 -33 -50 6 -19 5 -21 -14 -11 -29 16 -51
51 -51 82 0 47 -61 78 -89 45 -10 -11 -9 -21 4 -46 15 -30 15 -33 0 -50 -9
-10 -15 -27 -13 -37 3 -15 14 -18 77 -18 85 0 106 -17 42 -35 -22 -6 -45 -19
-51 -30 -13 -24 -13 -26 5 -43 22 -23 53 -9 81 35 14 21 37 43 52 49 45 18
114 6 165 -29 25 -18 50 -32 56 -32 6 0 11 -4 11 -10 0 -14 -22 -12 -63 5 -56
23 -102 18 -187 -20 -43 -19 -90 -35 -104 -35 -16 0 -25 -4 -21 -10 3 -5 17
-10 30 -10 13 0 59 -11 102 -25 125 -40 184 -30 229 36 10 16 37 38 59 48 49
24 110 37 101 23 -3 -5 -21 -13 -40 -16 -46 -9 -60 -28 -96 -130 -33 -93 -33
-115 0 -73 11 14 48 36 82 49 34 13 75 38 93 55 35 36 45 34 45 -9 0 -17 10
-39 24 -53 32 -32 16 -41 -26 -15 -56 34 -152 18 -178 -30 -12 -22 0 -80 23
-107 7 -10 -66 -13 -361 -13 -204 0 -373 -4 -376 -8 -7 -11 541 -22 1124 -22
257 0 548 -3 647 -7 l181 -6 0 -25 c0 -37 25 -53 168 -105 71 -26 135 -51 141
-55 12 -8 8 -136 -13 -348 l-5 -62 -1120 6 c-1036 5 -1119 4 -1119 -11 0 -16
68 -17 868 -18 477 -1 980 -5 1117 -8 l250 -6 -334 -7 c-184 -5 -684 -8 -1112
-8 -707 0 -885 -6 -736 -24 28 -3 532 -6 1118 -6 l1065 0 -7 -63 c-10 -79 -21
-109 -107 -287 l-70 -145 -103 -85 c-143 -117 -303 -273 -355 -346 -91 -127
-130 -249 -104 -330 20 -64 76 -139 118 -158 66 -30 145 -49 217 -53 66 -4 76
-2 139 31 l69 36 51 -48 c49 -46 82 -63 151 -76 20 -4 66 6 143 32 116 39 124
38 100 -13 -18 -40 -2 -41 42 -1 52 47 62 46 54 -6 -11 -69 -43 -191 -54 -202
-16 -16 -12 -26 10 -26 31 0 70 23 109 64 19 20 39 36 43 36 18 0 6 -48 -17
-70 -75 -71 -40 -196 55 -194 66 2 87 12 99 45 6 18 11 41 11 52 0 38 -40 105
-76 126 -19 11 -34 27 -34 36 0 17 16 20 25 5 9 -14 78 -13 93 2 9 9 15 9 23
1 8 -8 6 -24 -5 -57 -12 -34 -14 -65 -10 -119 5 -58 3 -80 -10 -106 -10 -18
-15 -35 -13 -37 5 -6 143 132 164 163 11 16 13 37 9 75 -5 39 -4 49 4 36 5 -9
13 -43 16 -75 6 -51 3 -67 -20 -115 -14 -30 -26 -65 -26 -77 0 -41 31 -95 88
-155 32 -34 67 -76 77 -93 22 -38 41 -44 30 -10 -4 12 -10 69 -14 127 -8 117
-20 150 -76 199 -63 55 -37 63 40 12 113 -75 143 -158 89 -241 -23 -35 -25
-44 -16 -65 7 -14 20 -25 31 -25 32 0 44 26 38 80 -3 27 -2 52 2 54 15 10 49
-39 56 -82 11 -69 71 -90 90 -32 5 15 15 20 45 20 45 0 63 21 49 57 -11 29
-52 39 -103 26 -31 -9 -46 -8 -73 5 -37 18 -43 32 -13 32 10 0 24 9 30 20 15
28 -4 59 -41 67 -16 3 -32 10 -36 16 -4 7 15 8 59 4 57 -5 68 -3 83 14 15 16
16 23 7 44 -17 36 -62 34 -106 -6 -34 -29 -36 -30 -78 -18 -36 11 -39 13 -18
16 14 2 35 6 48 8 l22 5 -26 43 c-56 90 -94 127 -161 157 -65 30 -66 30 -48
50 24 26 47 25 109 -6 61 -30 96 -61 96 -84 0 -26 39 -70 61 -70 14 0 19 7 19
29 0 22 -11 39 -47 70 l-48 41 35 -6 c19 -3 54 -15 78 -27 45 -23 74 -17 80
17 7 34 -18 49 -70 42 -27 -4 -56 -10 -64 -13 -12 -4 -15 -2 -12 8 3 8 13 14
24 14 44 1 65 16 62 43 -2 21 -9 28 -30 30 -22 3 -32 -4 -50 -33 -24 -37 -50
-49 -89 -43 -22 4 -21 5 11 20 48 20 70 44 70 74 0 39 -37 30 -87 -21 -23 -25
-44 -45 -47 -45 -2 0 2 17 10 38 7 20 10 46 8 57 -4 15 5 26 36 45 48 30 57
57 35 101 -15 27 -15 38 -5 70 10 28 10 45 1 70 -6 17 -11 45 -11 61 0 47 -51
111 -113 142 -56 27 -101 33 -112 16 -18 -28 -25 9 -19 93 4 51 8 93 9 94 1 2
19 -6 40 -17 58 -30 79 -25 135 27 56 52 65 91 31 134 -18 24 -18 24 15 55
l33 30 10 -27 c5 -15 21 -35 36 -45 23 -15 28 -15 35 -3 13 21 1 60 -32 97
-32 38 -34 42 -12 42 9 0 29 -14 45 -31 22 -23 27 -37 23 -58 -7 -35 33 -88
59 -78 28 10 21 64 -10 94 l-28 26 25 -8 c13 -4 37 -21 51 -36 28 -31 44 -35
69 -19 11 7 12 14 4 27 -14 23 -29 29 -99 44 -97 20 -114 51 -26 47 72 -3 137
49 82 67 -22 7 -46 -1 -86 -29 -38 -26 -126 -28 -172 -3 -35 18 -48 56 -15 42
9 -4 43 -10 75 -13 64 -5 95 5 175 55 61 38 59 49 -10 84 -41 21 -43 39 -4 39
28 0 47 -16 75 -62 25 -42 42 -51 76 -38 38 15 52 53 31 85 -10 14 -24 29 -32
32 -24 9 -15 25 12 21 30 -3 38 -15 51 -72 10 -48 32 -64 70 -50 20 7 28 16
28 34 0 23 -13 35 -81 76 -30 18 -14 22 51 13 41 -5 67 -4 85 4 35 17 38 56 6
86 -45 42 -140 27 -191 -29 -24 -26 -75 -54 -75 -41 0 16 51 71 66 71 21 0 47
46 39 70 -9 28 -55 27 -83 -3 -17 -17 -21 -31 -16 -53 4 -24 -1 -35 -33 -65
-21 -20 -49 -40 -63 -44 l-25 -7 26 28 c14 16 39 54 55 84 16 29 44 69 62 88
19 18 32 35 30 37 -9 9 -176 -24 -209 -40 -88 -45 -129 -97 -129 -164 0 -17
-5 -43 -12 -58 -19 -44 -68 -113 -80 -113 -6 0 -1 12 13 26 19 21 24 35 23 77
-3 92 -16 207 -25 207 -5 0 -18 -19 -30 -42 -12 -23 -38 -66 -58 -96 -28 -43
-36 -66 -37 -104 -3 -65 -10 -70 -18 -10 -3 26 -13 58 -22 70 -16 24 -12 42
11 42 52 0 97 59 75 99 -6 12 -17 21 -24 21 -26 0 -66 -42 -76 -79 -10 -38
-35 -69 -46 -58 -3 3 4 15 15 26 25 25 27 63 5 85 -19 20 -38 20 -53 2 -15
-18 -17 -41 -6 -86 l7 -34 -23 16 c-13 8 -29 33 -35 54 -9 31 -20 45 -52 61
-2 0 8 19 23 41 l26 39 166 6 c91 4 183 12 204 19 86 25 133 85 274 352 l80
151 814 -4 c687 -3 813 -1 809 10 -4 12 -137 15 -796 19 -434 3 -794 9 -799
13 -4 5 351 7 790 5 723 -3 797 -2 797 13 0 14 -77 16 -785 22 l-785 6 -25 29
c-14 16 -62 49 -107 72 -46 24 -84 44 -86 45 -4 3 153 222 182 253 39 44 102
72 214 96 61 14 138 39 173 56 l62 32 573 5 c316 4 574 10 574 15 0 4 -80 8
-177 8 -98 0 -344 3 -546 7 l-368 6 44 46 c24 25 62 71 84 101 111 154 633
974 633 994 -1 21 -153 -167 -493 -609 -239 -312 -222 -292 -244 -279 -10 7
-18 20 -17 31 0 10 129 203 286 428 261 376 374 545 364 545 -20 0 -270 -296
-710 -838 -57 -71 -87 -87 -94 -51 -1 8 84 134 189 280 357 491 445 614 468
654 42 74 -160 -144 -457 -492 -156 -182 -290 -334 -297 -337 -8 -3 -21 2 -30
10 -14 15 -13 20 8 58 13 22 111 154 218 291 335 429 459 599 447 610 -13 13
-678 -689 -926 -978 -86 -100 -86 -100 -92 -292 l-5 -170 -112 -3 -112 -3 33
73 c76 167 260 677 339 938 70 230 95 499 63 659 -34 168 -109 256 -184 217
-22 -11 -36 -33 -61 -98 -18 -46 -186 -467 -373 -935 l-339 -853 -101 0 -100
0 4 183 c3 179 4 183 32 234 26 46 37 56 111 93 206 101 329 338 342 655 13
329 -100 641 -294 814 -112 100 -204 123 -299 76z m47 -192 c19 -11 33 -31 40
-53 44 -157 66 -676 35 -829 -31 -152 -96 -277 -179 -344 -65 -53 -82 -60
-100 -39 -61 70 -137 338 -137 486 0 239 124 622 244 751 47 50 55 52 97 28z
m1122 -35 c42 -57 57 -94 74 -195 14 -84 14 -115 4 -231 -16 -188 -34 -271
-103 -481 -141 -434 -264 -755 -363 -954 -60 -120 -162 -297 -170 -297 -14 0
-311 112 -319 120 -8 8 0 43 28 123 32 95 307 786 633 1592 151 374 142 355
168 355 15 0 33 -12 48 -32z m-1403 -40 c-114 -192 -170 -391 -170 -609 0
-134 53 -352 121 -494 15 -32 27 -61 25 -63 -5 -4 -57 63 -84 108 -11 20 -36
78 -53 130 -31 90 -33 104 -37 266 -4 156 -2 179 22 277 37 154 101 301 178
410 33 46 32 30 -2 -25z m694 -70 c83 -176 111 -324 103 -556 -5 -177 -23
-258 -83 -377 -50 -100 -107 -169 -176 -215 -33 -22 -64 -40 -68 -40 -17 0
-32 74 -27 130 3 40 22 96 63 186 53 120 58 135 62 221 3 70 -1 115 -18 195
-46 214 -45 289 8 402 29 61 76 126 93 126 4 0 24 -33 43 -72z m1458 -465
c-185 -237 -526 -680 -546 -710 -31 -45 -33 -83 -6 -108 38 -34 67 -8 323 294
133 157 257 301 276 321 l34 35 -25 -35 c-14 -19 -129 -179 -256 -355 -234
-323 -252 -356 -217 -385 20 -17 45 -6 87 38 28 29 324 386 495 597 18 22 32
37 33 34 0 -3 -103 -153 -230 -335 -271 -389 -268 -384 -252 -418 13 -29 56
-36 84 -13 20 16 132 157 357 450 100 130 184 237 187 237 2 0 -49 -80 -113
-177 -63 -98 -181 -278 -261 -401 -156 -240 -205 -295 -315 -356 -64 -35 -154
-66 -193 -66 -15 0 -26 10 -35 33 -7 17 -44 86 -81 151 -72 128 -84 170 -75
267 7 81 51 168 129 259 89 104 619 680 625 680 2 0 -9 -17 -25 -37z m-2565
-213 c15 -29 17 -110 4 -110 -15 0 -71 92 -71 117 0 21 4 24 27 21 17 -2 32
-12 40 -28z m106 -84 c7 -16 -18 -54 -28 -44 -9 9 3 58 14 58 5 0 11 -6 14
-14z m-200 -32 c-3 -13 -26 -15 -42 -5 -8 5 -11 16 -7 26 6 16 8 16 29 2 12
-8 21 -18 20 -23z m276 -64 c20 -94 8 -161 -35 -201 l-27 -24 6 25 c3 14 8 50
12 80 l5 55 -22 -64 c-27 -75 -44 -87 -54 -37 -8 46 -1 74 30 117 14 19 33 49
43 67 9 17 20 32 24 32 4 0 12 -23 18 -50z m-229 -10 c24 -15 7 -19 -25 -5
-23 10 -25 14 -10 14 11 0 27 -3 35 -9z m-16 -30 c25 -9 36 -30 17 -30 -23 0
-62 21 -56 30 8 12 8 12 39 0z m59 -142 c11 -14 21 -48 23 -74 l5 -49 -20 49
c-27 65 -46 83 -37 36 17 -104 18 -120 7 -120 -26 0 -51 64 -51 131 0 36 3 69
7 72 9 9 43 -14 66 -45z m67 -36 c10 -25 10 -36 2 -44 -16 -16 -18 -11 -27 47
-7 54 3 53 25 -3z m140 -93 c0 -16 -58 -96 -82 -113 -20 -15 -38 -13 -38 3 0
4 16 26 36 49 42 49 25 56 -29 11 -39 -32 -49 -26 -19 10 27 34 132 66 132 40z
m68 -66 c-4 -32 -38 -46 -38 -16 0 20 18 43 33 43 4 0 7 -12 5 -27z m-296 -37
c82 -1 93 -15 71 -86 -10 -32 -18 -48 -21 -37 -5 22 -22 12 -22 -14 0 -34 -20
-10 -21 24 0 18 -4 41 -9 52 -6 14 -9 -1 -9 -47 -1 -79 -15 -89 -27 -20 -5 31
-9 39 -12 25 -5 -30 -17 -29 -59 3 -39 29 -42 58 -11 91 16 18 28 22 43 17 11
-4 46 -8 77 -8z m338 -51 c0 -16 -27 -32 -37 -22 -3 4 -3 13 0 22 8 20 37 20
37 0z m-210 1 c0 -3 -4 -8 -10 -11 -5 -3 -10 -1 -10 4 0 6 5 11 10 11 6 0 10
-2 10 -4z m94 -22 c9 -8 16 -21 16 -28 0 -7 9 -21 20 -31 22 -20 27 -67 8 -83
-11 -8 -208 -22 -208 -14 0 4 120 90 132 95 7 2 10 8 6 12 -4 4 -37 -9 -73
-29 -36 -19 -65 -33 -65 -30 0 13 30 61 52 81 43 41 88 51 112 27z m-367 -34
c58 -33 80 -56 42 -45 -20 6 -22 5 -11 -6 22 -23 13 -28 -24 -13 -20 8 -45 14
-57 12 -16 -2 -8 -11 38 -38 32 -19 60 -40 62 -46 2 -6 -12 -15 -30 -21 -42
-13 -99 4 -135 41 -25 24 -25 27 -12 68 29 91 43 96 127 48z m533 -55 c0 -8
-9 -15 -20 -15 -11 0 -20 7 -20 15 0 8 9 15 20 15 11 0 20 -7 20 -15z m360
-236 l0 -171 -27 7 c-16 3 -44 14 -63 23 -32 16 -35 20 -32 55 5 61 36 149 73
205 18 29 37 52 41 52 5 0 8 -77 8 -171z m-1304 139 c-4 -13 -10 -53 -13 -90
-5 -56 -9 -67 -26 -72 -26 -7 -36 2 -83 69 -36 53 -37 55 -19 75 11 12 31 20
49 20 17 0 38 5 46 10 8 5 23 10 34 10 14 0 17 -5 12 -22z m755 12 c18 0 39
-9 53 -24 l24 -23 -17 -63 c-20 -72 -39 -86 -89 -65 -20 9 -37 27 -49 52 -9
21 -19 42 -21 47 -5 9 47 3 97 -11 40 -11 14 17 -38 40 -44 20 -45 21 -21 28
17 5 19 7 7 8 -10 1 -15 6 -12 12 4 6 14 8 22 5 8 -3 28 -6 44 -6z m-650 -32
c52 -42 52 -71 -1 -123 -30 -29 -43 -36 -51 -28 -6 6 -18 9 -25 6 -11 -4 -14
11 -14 74 0 111 21 128 91 71z m427 -15 c2 -7 -4 -16 -13 -19 -18 -7 -65 14
-65 28 0 14 73 5 78 -9z m-92 -14 c3 -6 26 -19 50 -29 24 -11 44 -24 44 -29 0
-6 13 -25 29 -43 31 -36 49 -78 32 -78 -6 0 -17 13 -25 29 -16 30 -34 41 -70
41 -12 0 -35 14 -51 30 -28 29 -32 30 -119 30 -85 1 -90 2 -71 16 50 40 164
60 181 33z m180 -23 c35 -31 39 -38 38 -80 -1 -30 -7 -53 -17 -64 -16 -15 -17
-15 -17 4 0 12 -14 39 -31 60 -43 54 -51 72 -44 94 9 28 26 25 71 -14z m-756
-40 c29 -38 41 -61 33 -63 -18 -6 -16 -32 2 -39 8 -4 15 -11 15 -16 0 -5 -21
6 -47 25 -27 19 -67 44 -91 56 -38 19 -42 24 -36 49 11 51 13 53 46 50 26 -2
41 -15 78 -62z m-560 -16 c7 -13 7 -26 2 -36 -8 -14 -11 -14 -25 7 -12 17 -14
26 -5 36 14 17 15 17 28 -7z m935 -13 c-63 -47 -85 -75 -85 -109 0 -18 -7 -42
-15 -52 -8 -11 -15 -31 -15 -45 0 -14 -4 -32 -9 -40 -18 -28 -61 70 -61 139 0
16 16 42 43 70 43 46 48 48 162 58 6 0 -3 -9 -20 -21z m192 1 c11 -13 24 -34
28 -46 6 -21 5 -23 -13 -13 -43 23 -118 13 -193 -25 -39 -19 -73 -33 -76 -30
-23 23 88 114 155 127 63 12 78 10 99 -13z m-1333 -20 c5 -15 7 -31 3 -34 -11
-11 -47 27 -47 48 0 29 33 18 44 -14z m714 -35 c42 -24 44 -27 27 -39 -23 -17
-13 -44 17 -44 13 0 29 -4 37 -9 23 -15 -6 -24 -55 -16 -36 5 -45 3 -50 -10
-11 -27 9 -37 54 -26 46 10 58 -3 17 -19 -17 -7 -25 -17 -25 -34 0 -22 -6 -26
-54 -36 -63 -13 -103 1 -132 45 -15 23 -15 28 0 65 10 27 14 54 10 79 -5 33
-3 41 22 60 34 27 66 23 132 -16z m740 -15 c9 -18 33 -47 51 -65 28 -26 35
-40 34 -69 -2 -79 -12 -100 -72 -158 -60 -56 -94 -69 -119 -44 -18 18 -15 28
10 28 12 0 39 17 60 37 50 49 50 84 -1 186 -43 85 -44 117 -4 117 17 0 29 -9
41 -32z m217 1 c7 -7 -6 -9 -39 -7 -31 2 -51 8 -54 17 -4 11 4 13 39 7 24 -4
49 -12 54 -17z m-830 1 c3 -5 1 -10 -4 -10 -6 0 -11 5 -11 10 0 6 2 10 4 10 3
0 8 -4 11 -10z m85 -30 c-15 -28 -20 -23 -13 13 4 18 9 25 15 19 6 -6 6 -18
-2 -32z m-770 5 c28 -29 20 -43 -15 -27 -15 7 -25 20 -25 32 0 27 12 25 40 -5z
m1194 0 c20 -18 26 -34 26 -65 0 -22 -4 -40 -8 -40 -4 0 -6 15 -4 33 5 46 -16
68 -70 74 -42 5 -49 2 -73 -23 -15 -16 -31 -36 -35 -45 -10 -18 19 -88 49
-118 14 -14 17 -21 7 -21 -19 0 -86 84 -86 108 0 82 40 122 121 122 35 0 52
-6 73 -25z m671 5 c3 -5 -3 -10 -14 -10 -12 0 -21 5 -21 10 0 6 6 10 14 10 8
0 18 -4 21 -10z m389 -1 c5 -5 -25 -94 -45 -130 -9 -17 -12 -17 -62 3 -70 28
-75 35 -69 91 l4 49 83 -4 c46 -1 86 -6 89 -9z m756 -7 c0 -11 -14 -39 -32
-63 -56 -77 -219 -279 -226 -279 -17 0 -132 44 -132 51 0 4 23 47 51 96 28 48
64 114 80 145 l29 57 57 4 c155 9 173 8 173 -11z m-3157 -7 c1 -5 -13 -11 -30
-13 -31 -3 -42 6 -26 22 10 10 53 3 56 -9z m378 0 c42 -15 79 -41 79 -55 0
-12 -73 0 -97 16 -30 19 -39 18 -22 -3 8 -9 32 -24 54 -34 33 -15 36 -19 16
-19 -45 0 -141 71 -141 105 0 11 69 4 111 -10z m1359 6 c0 -15 -112 -81 -136
-81 -32 0 -89 49 -74 64 6 6 55 14 108 17 53 3 98 6 100 7 1 1 2 -2 2 -7z
m-934 -29 c-4 -3 -14 2 -24 12 -16 18 -16 18 6 6 13 -6 21 -14 18 -18z m1819
-268 c341 -135 624 -250 630 -255 5 -6 4 -23 -4 -47 -14 -38 -144 -287 -208
-397 l-34 -60 -84 41 c-137 67 -323 140 -624 244 -375 130 -612 217 -625 230
-21 21 89 315 178 474 l36 64 58 -24 c31 -13 336 -135 677 -270z m-1297 264
c6 -6 12 -20 12 -31 0 -20 0 -20 -21 2 -17 18 -28 22 -55 16 -35 -6 -43 2 -22
23 13 13 64 7 86 -10z m-198 -25 c-5 -21 -12 -52 -18 -68 -10 -33 -3 -62 28
-105 31 -43 25 -53 -19 -30 -56 28 -81 64 -81 116 0 23 3 50 6 59 6 15 71 65
85 65 3 0 3 -17 -1 -37z m-200 17 c0 -5 -5 -10 -11 -10 -5 0 -7 5 -4 10 3 6 8
10 11 10 2 0 4 -4 4 -10z m0 -39 c0 -12 -20 -25 -27 -18 -7 7 6 27 18 27 5 0
9 -4 9 -9z m290 -16 c5 -14 25 -32 42 -40 33 -14 33 -14 6 -15 -27 0 -68 39
-68 66 0 22 10 16 20 -11z m40 -1 c0 -8 -4 -12 -10 -9 -5 3 -10 10 -10 16 0 5
5 9 10 9 6 0 10 -7 10 -16z m-1214 -10 c-3 -9 -6 -18 -6 -20 0 -2 -7 -4 -15
-4 -18 0 -19 12 -3 28 17 17 31 15 24 -4z m1354 -12 c0 -25 -90 -79 -111 -66
-6 3 6 14 30 24 22 10 46 28 53 39 16 26 28 27 28 3z m210 -46 c0 -5 -10 -1
-22 10 -31 26 -38 36 -31 48 6 9 53 -42 53 -58z m-800 34 c-8 -5 -17 -7 -19
-4 -3 3 1 9 9 14 8 5 17 7 19 4 3 -3 -1 -9 -9 -14z m101 -18 c7 -19 2 -26 -30
-47 -48 -32 -100 -41 -125 -22 -18 13 -16 16 35 50 29 20 56 34 58 31 3 -2 -4
-10 -14 -18 -11 -8 -16 -20 -12 -30 11 -27 26 -18 43 24 18 44 32 47 45 12z
m78 -22 c34 -33 51 -58 51 -74 0 -61 -29 -73 -77 -32 -25 22 -28 30 -28 90 0
36 0 66 1 66 1 0 25 -22 53 -50z m-712 29 c27 -11 27 -11 7 -19 -12 -5 -42
-12 -68 -15 -73 -11 -56 -28 24 -23 74 4 86 -1 45 -20 -35 -16 -73 -15 -131 4
-67 23 -72 30 -33 50 62 32 113 40 156 23z m881 -11 c18 -18 15 -28 -8 -28
-13 0 -20 7 -20 20 0 23 10 26 28 8z m239 -72 c-46 -46 -105 -62 -164 -45 -39
10 -84 51 -72 63 2 3 29 -2 59 -10 77 -20 80 -19 146 30 58 44 59 44 62 21 2
-17 -7 -35 -31 -59z m-920 53 c-15 -12 -32 -30 -38 -40 -9 -17 -3 -16 40 8 38
21 53 25 62 16 18 -18 -27 -57 -90 -78 -29 -9 -54 -15 -57 -13 -2 3 3 26 12
51 17 50 45 77 79 77 18 -1 17 -3 -8 -21z m1123 -23 c11 -14 8 -16 -19 -16
-27 0 -31 4 -31 25 0 22 3 24 18 16 10 -5 24 -17 32 -25z m-849 -43 c21 -10
39 -21 39 -24 0 -11 -67 -39 -93 -39 -37 0 -73 16 -81 36 -8 21 -5 24 36 34
50 12 58 11 99 -7z m149 -1 c0 -46 -107 -152 -155 -152 -27 0 -85 57 -64 64 8
2 33 9 57 15 23 7 57 24 75 40 59 51 87 62 87 33z m748 -18 c12 -8 22 -19 22
-24 0 -6 -17 -51 -37 -100 l-38 -90 -240 0 c-132 0 -250 3 -263 6 -20 6 -22
11 -17 33 9 35 9 35 42 18 30 -15 117 -30 168 -28 17 1 54 8 83 17 55 15 92
55 92 99 0 74 113 115 188 69z m1552 17 c0 -17 -110 -171 -122 -171 -5 0 -32
10 -59 21 l-50 22 23 24 c52 56 208 134 208 104z m-2097 -38 c20 -11 66 -20
119 -23 64 -4 92 -11 107 -24 15 -14 30 -17 60 -13 44 6 52 2 44 -19 -12 -32
-150 -78 -189 -63 -10 4 -36 8 -57 8 -23 1 -52 10 -69 23 -44 31 -83 128 -52
128 3 0 19 -8 37 -17z m-208 -60 l-6 -38 23 37 c24 39 48 50 48 21 0 -17 -83
-103 -100 -103 -18 0 -10 53 13 87 12 18 23 33 25 33 2 0 0 -17 -3 -37z m110
-38 c7 -17 9 -15 17 15 9 33 11 34 24 15 20 -27 17 -79 -5 -106 l-18 -23 -32
44 c-34 47 -37 60 -19 93 12 24 11 25 33 -38z m-441 16 c4 -5 -9 -21 -26 -35
-18 -15 -39 -31 -46 -37 -21 -17 -50 15 -36 39 21 33 94 56 108 33z m96 5 c0
-2 -11 -29 -25 -60 -21 -47 -29 -56 -50 -56 -30 0 -32 11 -6 34 11 10 23 31
26 46 6 25 17 34 48 39 4 0 7 -1 7 -3z m60 -67 c0 -15 -64 -49 -73 -40 -5 5
-1 25 7 45 15 37 16 37 41 20 14 -9 25 -20 25 -25z m110 12 c0 -16 -7 -37 -16
-45 -17 -18 -94 -22 -94 -6 0 10 89 79 103 80 4 0 7 -13 7 -29z m128 -15 l20
-34 -21 -6 c-29 -8 -71 -8 -91 0 -12 5 -6 14 27 40 23 18 43 33 44 33 0 1 10
-14 21 -33z m-388 9 c0 -8 -62 -37 -67 -31 -3 3 10 12 28 20 42 18 39 17 39
11z m1534 -321 l76 -27 0 -224 c0 -123 5 -289 11 -367 9 -122 8 -156 -6 -231
-9 -48 -14 -103 -10 -122 l6 -34 -105 7 c-116 8 -130 0 -72 -34 86 -51 96
-184 17 -230 -52 -30 -65 -95 -37 -198 l14 -51 -36 -44 c-68 -86 -126 -184
-148 -253 l-22 -70 -21 34 c-44 71 -54 133 -48 285 7 153 17 202 123 567 90
312 105 400 129 768 9 129 18 241 20 249 3 7 12 11 20 8 7 -3 48 -18 89 -33z
m337 -120 c5 -2 4 -15 -1 -27 -6 -12 -35 -105 -65 -207 -78 -259 -125 -400
-135 -400 -43 0 -54 642 -11 694 11 13 25 10 108 -20 53 -19 100 -37 104 -40z
m172 -59 c42 -15 77 -32 77 -37 0 -5 -51 -80 -113 -166 -62 -86 -155 -221
-207 -300 -51 -79 -97 -139 -102 -134 -4 4 23 107 61 227 37 121 74 244 81
273 13 57 94 176 114 169 6 -2 46 -16 89 -32z m240 -95 c48 -21 100 -46 115
-56 l27 -19 -55 -6 c-69 -9 -246 -9 -282 0 l-27 6 46 63 c51 72 38 71 176 12z
m-88 -130 c-77 -4 -147 -3 -155 1 -8 5 55 8 140 7 l155 -1 -140 -7z m465 -55
c0 -3 -18 -38 -40 -78 -46 -81 -80 -114 -127 -123 -60 -11 -60 1 2 59 71 69
60 74 -25 11 -61 -45 -62 -45 -56 -19 11 44 36 74 83 102 54 31 163 64 163 48z
m88 -57 c-2 -15 -11 -24 -25 -26 -25 -4 -31 16 -11 36 20 20 40 14 36 -10z
m-538 -46 c0 -27 -37 -59 -52 -44 -8 8 -7 18 6 36 19 30 46 34 46 8z m-245
-13 c8 -25 1 -34 -20 -26 -19 8 -20 47 -1 47 8 0 18 -9 21 -21z m129 12 c9
-14 -4 -41 -19 -41 -18 0 -26 15 -19 34 7 17 29 21 38 7z m831 -21 c38 -42
-14 -59 -129 -44 -46 7 -46 7 -29 27 38 41 127 51 158 17z m-1007 -20 c7 -11
23 -20 37 -20 32 0 32 -13 0 -34 -14 -10 -30 -27 -34 -40 -8 -18 -15 -22 -43
-18 -28 3 -40 -2 -66 -29 -17 -18 -34 -31 -36 -28 -5 5 114 189 123 189 3 0
12 -9 19 -20z m391 -35 c15 -65 8 -106 -21 -131 -21 -19 -21 -19 -13 1 4 11 9
43 12 70 l4 50 -31 -62 c-17 -35 -35 -63 -39 -63 -15 0 -20 26 -11 63 7 34 66
127 80 127 4 0 12 -25 19 -55z m-225 -39 c34 -1 42 -6 53 -31 20 -48 1 -120
-49 -184 -18 -24 -18 -24 -12 61 5 59 3 87 -5 92 -7 5 -11 -4 -11 -26 0 -35
-24 -145 -33 -154 -3 -3 -12 19 -21 49 -9 30 -27 74 -41 98 -14 24 -25 52 -25
61 0 27 40 50 75 42 17 -4 48 -8 69 -8z m421 -16 c-3 -5 -24 -14 -46 -20 -22
-6 -47 -14 -55 -17 -17 -6 -19 18 -2 35 14 14 112 17 103 2z m229 -37 c4 -9 4
-18 2 -21 -6 -5 -55 49 -56 61 0 12 48 -23 54 -40z m-46 -6 c27 -25 28 -37 4
-37 -15 0 -52 46 -52 65 0 8 20 -3 48 -28z m150 17 c26 -18 28 -30 6 -38 -19
-7 -54 20 -54 41 0 17 20 17 48 -3z m-1589 -270 c-131 -461 -149 -599 -107
-806 2 -8 -8 -14 -25 -16 -42 -5 -110 66 -131 137 -20 69 -20 172 0 242 8 30
76 178 149 329 73 151 143 299 156 329 13 30 24 50 26 44 2 -5 -28 -122 -68
-259z m665 235 c15 -11 35 -38 46 -60 24 -46 25 -62 3 -34 l-15 20 5 -20 c2
-11 8 -29 13 -40 4 -12 -13 -1 -44 28 -71 66 -97 62 -38 -5 25 -29 46 -55 46
-58 0 -4 -87 -5 -123 -1 -17 2 -57 55 -57 75 0 24 95 115 121 116 9 0 28 -9
43 -21z m642 5 c19 -9 33 -21 31 -27 -2 -6 -26 -25 -53 -42 -40 -25 -60 -30
-109 -30 -33 0 -62 5 -65 10 -3 6 31 22 74 36 49 16 75 29 67 33 -12 8 -82 1
-126 -11 -35 -9 -3 15 40 31 54 20 100 19 141 0z m-288 -71 c6 -10 13 -34 17
-53 4 -19 21 -47 37 -62 23 -21 28 -33 23 -50 -11 -33 -35 -58 -58 -58 -21 0
-107 38 -107 47 0 3 10 13 23 23 22 19 21 19 -28 4 -77 -22 -77 -11 0 29 73
37 64 50 -15 22 -57 -20 -60 -19 -25 10 23 19 26 25 13 25 -27 0 -22 15 17 49
41 35 89 42 103 14z m-591 -45 c12 -29 31 -76 43 -104 13 -29 20 -59 17 -68
-6 -14 -10 -14 -44 0 -21 9 -44 23 -50 32 -20 25 -13 192 7 192 4 0 16 -24 27
-52z m76 -51 c25 -31 28 -39 17 -52 -11 -14 -15 -12 -29 12 -9 16 -22 41 -29
56 -17 40 3 32 41 -16z m176 -46 c55 -29 65 -44 41 -66 -15 -13 -28 -16 -62
-10 -24 4 -67 7 -95 8 -29 0 -53 4 -53 8 0 14 35 49 65 64 39 20 58 19 104 -4z
m-875 -236 c-49 -101 -93 -208 -102 -247 -15 -64 -18 -68 -52 -79 -61 -20
-188 -87 -224 -120 l-36 -31 0 46 c0 132 137 318 389 529 58 48 106 85 108 84
2 -2 -36 -84 -83 -182z m549 169 c40 -7 48 -19 18 -29 -12 -3 -36 3 -58 14
-41 22 -30 26 40 15z m610 -15 c55 -27 107 -78 107 -103 0 -24 -83 -106 -108
-106 -27 0 -77 35 -106 73 -20 26 -26 45 -24 71 l3 35 40 -19 c22 -11 55 -32
74 -47 l34 -28 -16 32 c-9 17 -31 43 -49 57 l-33 26 35 -6 35 -6 -25 21 c-32
26 -20 26 33 0z m-173 -21 c34 -56 21 -65 -30 -22 -24 21 -28 29 -19 40 17 21
27 17 49 -18z m-495 5 c19 -9 35 -20 35 -23 0 -7 -52 -33 -54 -28 0 2 -9 18
-19 36 -20 36 -13 39 38 15z m360 -2 c27 -6 61 -22 75 -34 14 -13 38 -31 53
-41 16 -10 35 -33 43 -51 16 -39 19 -165 4 -165 -5 0 -10 8 -10 19 0 10 -9 29
-19 43 -11 14 -27 43 -36 66 -14 34 -25 44 -61 58 -29 11 -50 27 -60 45 -18
35 -43 49 -88 49 -37 0 -49 15 -18 23 19 6 44 3 117 -12z m-182 -16 c20 -8 55
-15 77 -15 27 0 47 -7 60 -20 46 -46 16 -61 -126 -64 -114 -2 -117 -2 -140
-29 -13 -16 -24 -37 -24 -47 0 -10 -5 -22 -11 -26 -7 -4 -9 -24 -6 -50 5 -48
-8 -58 -36 -26 -29 32 -28 64 1 142 25 67 33 78 82 112 60 42 72 45 123 23z
m250 -124 c61 -60 44 -291 -21 -291 -13 0 -14 13 -9 83 8 96 -1 137 -42 188
-17 20 -27 40 -23 43 11 12 76 -4 95 -23z m-329 -79 l-17 -81 26 -43 c14 -24
34 -52 46 -62 30 -27 27 -44 -6 -38 -16 2 -47 22 -69 44 -37 35 -42 47 -48 98
-4 33 -3 67 2 77 6 10 15 31 21 46 9 22 48 51 58 43 2 -2 -4 -39 -13 -84z
m220 57 c38 -30 56 -71 56 -129 0 -49 -1 -51 -47 -81 -42 -26 -54 -29 -93 -24
-66 9 -79 14 -91 37 -10 19 -9 20 7 12 11 -4 50 -9 89 -9 l70 0 23 48 23 49
-29 46 c-27 45 -31 47 -73 47 -40 0 -45 -3 -61 -35 -15 -30 -18 -31 -18 -12 0
61 90 93 144 51z m-160 -16 c-5 -16 -9 -52 -9 -81 0 -58 -6 -65 -24 -26 -18
39 4 134 30 134 8 0 8 -9 3 -27z m148 -49 c19 -39 20 -46 8 -54 -24 -16 -29
-12 -32 28 -3 34 -6 37 -35 40 -51 5 -39 29 15 31 17 1 27 -10 44 -45z m-374
-40 c10 -36 19 -48 42 -57 23 -9 39 -29 67 -85 22 -45 53 -88 80 -112 49 -43
53 -55 21 -64 -71 -19 -166 17 -187 71 -6 16 -20 39 -31 53 -23 28 -50 118
-50 165 0 29 23 75 38 75 5 0 13 -21 20 -46z m299 14 c-3 -8 -6 -5 -6 6 -1 11
2 17 5 13 3 -3 4 -12 1 -19z m-10 -70 c10 0 30 0 46 1 15 1 27 -3 27 -8 0 -6
-21 -11 -50 -11 -53 0 -70 15 -70 62 1 20 3 19 15 -9 8 -18 22 -34 32 -35z
m43 42 c0 -13 -28 -25 -38 -16 -3 4 0 11 8 16 20 13 30 12 30 0z m276 -140
c-2 -14 -12 -47 -23 -75 -19 -49 -20 -50 -88 -73 -107 -34 -169 -14 -96 32 22
14 42 35 46 47 4 11 22 27 41 35 39 17 49 33 59 98 3 27 9 55 12 63 8 21 54
-98 49 -127z m141 24 c60 -30 69 -56 31 -91 -24 -22 -87 -55 -125 -67 -19 -6
-23 -4 -23 13 0 13 -6 21 -16 21 -18 0 -17 3 11 80 30 80 40 84 122 44z m-307
-14 c0 -60 -23 -95 -81 -119 -64 -28 -104 -20 -165 33 -43 39 -37 43 45 25 40
-8 55 -7 80 5 16 9 34 23 39 32 9 16 61 54 75 54 4 0 7 -14 7 -30z m-124 -14
c18 -14 18 -15 -10 -22 -26 -6 -45 5 -46 29 0 12 35 8 56 -7z m532 -92 c1 -16
7 -48 14 -72 9 -37 8 -45 -7 -62 -20 -22 -44 -21 -140 5 -44 13 -50 17 -51 42
-1 25 6 31 50 51 28 12 65 33 81 47 37 30 49 27 53 -11z m-263 -68 c-17 -14
-32 -20 -34 -14 -5 14 27 38 48 38 11 0 6 -8 -14 -24z m-245 -1 c16 -8 46 -19
67 -24 l38 -8 -40 -18 c-22 -9 -50 -26 -62 -37 -27 -25 -66 -18 -105 20 -33
31 -35 48 -8 57 11 3 20 11 20 16 0 14 58 11 90 -6z m187 -21 c-9 -9 -28 6
-21 18 4 6 10 6 17 -1 6 -6 8 -13 4 -17z m88 6 c-3 -5 -12 -10 -18 -10 -7 0
-6 4 3 10 19 12 23 12 15 0z m-436 -19 c12 -7 7 -13 -22 -27 -50 -24 -47 -32
8 -24 51 8 55 3 20 -30 -21 -20 -31 -22 -81 -17 -68 7 -79 16 -58 46 34 47
100 73 133 52z m311 -5 c0 -8 -4 -17 -9 -21 -12 -7 -24 12 -16 25 9 15 25 12
25 -4z m-33 -41 c2 -6 -11 -25 -28 -43 -20 -20 -29 -38 -25 -48 9 -24 41 -12
44 16 2 14 8 30 14 35 7 7 9 -1 4 -25 -4 -19 -9 -54 -13 -78 -7 -54 -17 -60
-48 -26 -22 23 -25 36 -25 96 0 62 2 70 23 78 27 11 49 9 54 -5z m188 5 c-3
-5 -10 -10 -16 -10 -5 0 -9 5 -9 10 0 6 7 10 16 10 8 0 12 -4 9 -10z m145 -25
c46 -9 57 -16 74 -44 l20 -34 -30 -23 c-16 -13 -34 -24 -41 -24 -7 0 -49 25
-93 55 -44 30 -85 55 -90 55 -6 0 -10 5 -10 10 0 7 7 7 21 0 26 -15 51 -6 43
15 -5 13 -2 15 22 9 16 -4 54 -13 84 -19z m-540 -16 c0 -6 -8 -23 -18 -37 -35
-51 -38 -59 -16 -42 10 8 30 23 43 35 l23 20 -21 -43 c-25 -50 -84 -93 -89
-66 -10 45 33 144 63 144 8 0 15 -5 15 -11z m106 -46 c-4 -27 -12 -63 -18 -82
-10 -32 -7 -91 8 -138 8 -28 -12 -30 -61 -7 -43 20 -47 32 -34 101 13 67 31
107 67 146 37 39 45 34 38 -20z m264 27 c8 -5 12 -11 9 -14 -3 -3 -14 1 -25 9
-21 16 -8 20 16 5z m-32 -22 c7 -7 12 -20 12 -31 0 -27 43 -18 50 11 l5 23 46
-29 c59 -38 89 -77 89 -117 0 -36 -21 -59 -63 -69 -15 -4 -45 -22 -66 -41 -42
-39 -67 -43 -112 -19 -31 16 -61 70 -72 129 -5 25 -2 33 16 40 16 7 23 20 25
48 2 20 7 37 12 37 11 0 25 -47 22 -71 -2 -9 4 -22 13 -29 13 -11 19 -11 31 2
13 12 14 20 5 37 -7 11 -16 21 -20 21 -11 0 -31 56 -24 64 9 9 18 7 31 -6z
m-88 -18 c0 -11 -4 -20 -10 -20 -5 0 -10 9 -10 20 0 11 5 20 10 20 6 0 10 -9
10 -20z m-74 -120 c8 0 44 -101 44 -124 0 -2 -10 -6 -22 -9 -49 -13 -113 99
-93 164 7 21 7 21 34 -5 15 -14 32 -26 37 -26z m-161 -112 c14 -6 25 -17 25
-24 0 -13 -69 -78 -77 -71 -7 8 9 107 18 107 4 0 20 -5 34 -12z m304 -83 c5
-21 6 -48 1 -65 -5 -17 -5 -30 -1 -30 11 0 29 47 34 85 l3 30 13 -30 c6 -16 9
-40 6 -53 -7 -29 -84 -114 -96 -106 -16 10 -11 157 7 182 8 12 17 22 19 22 2
0 8 -16 14 -35z m222 -26 c29 -20 89 -104 89 -124 0 -27 -102 7 -148 49 -26
23 -56 75 -48 83 2 3 12 -9 20 -26 9 -17 34 -40 56 -51 55 -28 61 -25 17 11
-21 17 -44 44 -53 61 l-16 31 28 -7 c15 -4 40 -16 55 -27z m-391 -85 c0 -65
-32 -83 -75 -39 -28 27 -33 71 -11 100 12 16 13 13 9 -32 -3 -28 -1 -53 4 -56
5 -3 9 9 9 27 0 19 8 46 18 61 l19 28 13 -24 c7 -13 13 -42 14 -65z m37 -36
c-3 -7 -5 -2 -5 12 0 14 2 19 5 13 2 -7 2 -19 0 -25z m600 -44 c10 -27 -28
-43 -57 -24 -13 9 -12 12 4 25 26 19 45 19 53 -1z m-340 -114 c31 -67 40 -53
18 30 -9 34 -13 65 -10 69 11 10 53 -47 64 -87 13 -45 14 -142 2 -142 -16 0
-102 100 -117 136 -10 23 -13 47 -8 68 l7 31 9 -25 c6 -14 21 -50 35 -80z
m276 11 c13 -13 -1 -31 -24 -31 -22 0 -62 37 -54 50 6 10 63 -4 78 -19z m141
-107 c9 -3 16 -15 16 -26 0 -18 -5 -20 -37 -15 -45 8 -64 24 -43 37 17 11 42
13 64 4z m-94 -47 c12 -21 12 -29 2 -39 -16 -16 -28 -2 -36 40 -7 40 11 40 34
-1z m-130 -1 c0 -28 -17 -43 -32 -28 -7 7 -6 17 1 31 16 28 31 27 31 -3z"/>
</g>
</svg>
