<?xml version="1.0" standalone="no"?>
<!DOCTYPE svg PUBLIC "-//W3C//DTD SVG 20010904//EN"
 "http://www.w3.org/TR/2001/REC-SVG-20010904/DTD/svg10.dtd">
<svg version="1.0" xmlns="http://www.w3.org/2000/svg"
 width="251.000000pt" height="201.000000pt" viewBox="0 0 251.000000 201.000000"
 preserveAspectRatio="xMidYMid meet">

<g transform="translate(0.000000,201.000000) scale(0.100000,-0.100000)"
fill="#000000" stroke="none">
<path d="M385 1868 c-78 -43 -125 -130 -125 -233 l0 -71 -79 -57 c-123 -90
-167 -167 -159 -277 7 -94 77 -166 186 -192 l52 -13 0 -46 c0 -26 -6 -51 -13
-57 -10 -9 -12 -4 -9 23 9 72 -81 113 -133 60 -63 -62 -6 -145 99 -145 71 0
99 30 104 113 4 61 6 66 31 72 79 20 131 88 131 172 0 84 -47 139 -142 167
-14 4 -18 16 -18 53 0 46 2 50 65 106 70 62 108 125 120 194 16 96 -45 167
-110 131z m25 -119 c0 -33 -27 -83 -65 -119 l-35 -34 0 41 c0 50 12 85 40 113
27 27 60 27 60 -1z m-150 -333 c0 -28 -6 -38 -30 -52 -39 -24 -64 -76 -56
-120 8 -41 26 -55 26 -20 0 26 31 66 50 66 6 0 10 -37 10 -91 0 -89 0 -90 -22
-84 -40 12 -80 39 -102 68 -27 37 -27 123 0 166 18 28 101 99 117 100 4 1 7
-14 7 -33z m95 -141 c34 -33 34 -87 0 -120 -39 -40 -45 -32 -45 60 0 92 6 100
45 60z"/>
<path d="M1670 1520 l0 -352 -27 8 c-16 5 -51 9 -79 9 -40 0 -58 -6 -86 -27
-128 -98 -63 -298 97 -298 57 0 102 24 139 73 20 27 21 42 24 338 2 241 6 309
15 309 26 0 107 -60 131 -97 37 -57 50 -122 43 -226 -3 -51 -9 -101 -13 -112
-18 -48 37 20 71 87 45 91 52 143 30 224 -21 77 -54 125 -154 224 -43 42 -87
97 -101 125 -14 28 -25 51 -25 51 0 1 -15 5 -32 9 l-33 7 0 -352z"/>
<path d="M2410 1216 l0 -374 -42 15 c-79 27 -169 -12 -207 -90 -27 -55 -27
-99 0 -155 51 -104 180 -130 270 -55 60 51 59 38 59 558 l0 475 -40 0 -40 0 0
-374z"/>
<path d="M850 1051 l0 -320 -36 15 c-143 60 -270 -132 -160 -242 73 -73 187
-59 239 31 8 13 14 113 17 291 l5 272 158 -61 157 -61 0 -189 c0 -177 -1 -189
-17 -181 -10 5 -43 9 -73 9 -70 0 -112 -28 -135 -90 -21 -55 -14 -103 22 -145
69 -82 182 -78 240 9 23 34 23 35 23 426 l0 391 -214 82 c-117 45 -216 82
-220 82 -3 0 -6 -144 -6 -319z m228 123 c147 -55 152 -58 152 -86 0 -33 2 -32
-41 -14 -19 7 -89 35 -156 60 -110 43 -123 50 -123 72 0 13 3 24 8 24 4 0 76
-25 160 -56z"/>
</g>
</svg>
