<?xml version="1.0" standalone="no"?>
<!DOCTYPE svg PUBLIC "-//W3C//DTD SVG 20010904//EN"
 "http://www.w3.org/TR/2001/REC-SVG-20010904/DTD/svg10.dtd">
<svg version="1.0" xmlns="http://www.w3.org/2000/svg"
 width="388.000000pt" height="444.000000pt" viewBox="0 0 388.000000 444.000000"
 preserveAspectRatio="xMidYMid meet">

<g transform="translate(0.000000,444.000000) scale(0.100000,-0.100000)"
fill="#000000" stroke="none">
<path d="M1910 4005 l0 -95 -75 0 -75 0 0 -30 0 -30 75 0 75 0 0 -162 0 -162
-170 -452 -170 -452 0 -340 c0 -260 -3 -342 -12 -349 -7 -5 -196 -99 -420
-208 -349 -171 -405 -202 -390 -212 57 -40 52 17 55 -631 l2 -592 380 -3 380
-2 3 -32 3 -33 370 0 369 0 0 35 0 36 383 -1 382 -1 3 595 2 594 36 22 35 22
-388 192 c-213 106 -403 198 -420 205 l-33 13 0 338 0 339 -170 457 -170 457
0 164 0 163 75 0 75 0 0 30 0 30 -75 0 -75 0 0 95 0 95 -30 0 -30 0 0 -95z
m10 -1583 c-6 -2 -24 -15 -40 -29 -27 -22 -30 -31 -30 -86 -1 -34 -7 -80 -15
-102 -22 -61 -20 -65 29 -65 25 0 48 -4 51 -10 3 -5 15 -10 26 -10 10 0 19 5
19 10 0 6 23 10 50 10 41 0 50 3 50 18 0 10 -5 23 -12 30 -6 6 -14 50 -16 97
-4 80 -6 87 -34 110 -16 14 -34 25 -39 25 -5 0 -9 20 -9 45 0 25 4 45 9 45 28
0 99 -70 125 -123 27 -54 30 -70 34 -188 l5 -129 -178 0 -178 0 6 128 c3 70
11 144 18 164 15 45 62 104 103 129 l31 19 3 -42 c2 -25 -1 -44 -8 -46z m78
-992 c70 -54 118 -153 132 -270 5 -46 10 -221 10 -387 l0 -303 -200 0 -200 0
0 324 c0 404 11 474 93 589 19 28 93 87 108 87 4 0 30 -18 57 -40z m-818 -280
l0 -100 -55 0 c-62 0 -66 7 -43 83 11 36 74 117 91 117 4 0 7 -45 7 -100z m62
63 c25 -27 58 -104 58 -135 0 -27 -2 -28 -55 -28 l-55 0 0 100 c0 93 1 100 18
91 9 -5 25 -18 34 -28z m1448 -63 l0 -100 -55 0 c-53 0 -55 1 -55 28 0 39 43
125 75 150 15 12 29 22 31 22 2 0 4 -45 4 -100z m73 47 c27 -36 47 -88 47
-123 0 -22 -4 -24 -55 -24 l-55 0 0 100 c0 97 1 100 20 90 10 -6 30 -25 43
-43z m-1583 -372 l0 -205 -55 0 -55 0 0 205 0 205 55 0 55 0 0 -205z m120 0
l0 -205 -55 0 -55 0 0 205 0 205 55 0 55 0 0 -205z m1390 0 l0 -205 -55 0 -55
0 0 205 0 205 55 0 55 0 0 -205z m120 0 l0 -205 -55 0 -55 0 0 205 0 205 55 0
55 0 0 -205z"/>
<path d="M1874 1387 c-32 -34 -60 -76 -75 -113 -23 -58 -24 -67 -27 -421 l-3
-363 171 0 171 0 -3 363 c-3 354 -4 363 -27 421 -24 61 -114 166 -141 166 -8
0 -37 -24 -66 -53z"/>
</g>
</svg>
