<?xml version="1.0" standalone="no"?>
<!DOCTYPE svg PUBLIC "-//W3C//DTD SVG 20010904//EN"
 "http://www.w3.org/TR/2001/REC-SVG-20010904/DTD/svg10.dtd">
<svg version="1.0" xmlns="http://www.w3.org/2000/svg"
 width="579.000000pt" height="430.000000pt" viewBox="0 0 579.000000 430.000000"
 preserveAspectRatio="xMidYMid meet">

<g transform="translate(0.000000,430.000000) scale(0.100000,-0.100000)"
fill="#000000" stroke="none">
<path d="M1435 4294 c-248 -25 -388 -51 -546 -104 -492 -163 -798 -491 -874
-934 -50 -295 34 -639 224 -922 328 -487 935 -819 1663 -909 61 -7 112 -16
115 -19 3 -3 0 -58 -7 -124 -45 -448 160 -848 556 -1085 130 -78 307 -142 484
-174 134 -24 426 -24 575 1 464 77 877 280 1287 634 405 350 699 786 827 1227
44 152 53 238 49 440 -4 168 -8 200 -31 275 -120 396 -404 634 -866 727 -117
24 -453 23 -595 -1 -82 -14 -242 -51 -352 -82 -17 -5 -30 7 -72 64 -134 185
-299 339 -522 487 -472 314 -1057 488 -1680 499 -107 2 -213 2 -235 0z m620
-133 c361 -56 653 -145 941 -287 249 -122 486 -292 640 -458 77 -83 164 -192
164 -206 0 -4 -30 -20 -66 -34 -37 -15 -115 -50 -174 -77 l-108 -51 -73 77
c-223 234 -566 431 -942 540 -207 61 -480 98 -797 110 -665 26 -1134 -183
-1299 -579 -62 -148 -64 -288 -7 -455 107 -317 492 -697 926 -916 97 -49 253
-109 332 -129 79 -20 286 -51 406 -61 l84 -7 -7 -27 c-3 -14 -11 -38 -17 -54
-12 -32 -7 -32 -243 5 -698 108 -1255 444 -1543 933 -53 91 -97 196 -129 315
-37 135 -43 344 -15 481 41 199 126 355 272 500 225 222 524 347 950 399 135
16 548 5 705 -19z m-135 -516 c312 -35 499 -79 725 -171 237 -97 449 -231 608
-384 91 -87 98 -96 81 -108 -11 -7 -86 -57 -169 -111 -82 -55 -199 -139 -260
-187 -128 -101 -348 -315 -442 -426 l-65 -78 -81 0 c-223 1 -589 81 -847 187
-330 136 -656 370 -805 578 -75 106 -145 264 -145 330 0 21 102 128 170 177
86 62 255 132 405 167 177 41 575 54 825 26z m3005 -435 c170 -36 338 -115
459 -215 70 -58 161 -176 208 -268 315 -627 -172 -1633 -1077 -2230 -374 -246
-809 -387 -1190 -387 -425 1 -796 169 -1017 460 -66 87 -143 246 -168 350
-147 597 289 1337 1103 1871 343 226 745 383 1107 434 153 21 443 14 575 -15z"/>
<path d="M4495 2900 c-188 -25 -398 -95 -640 -214 -261 -129 -446 -255 -695
-473 -313 -274 -543 -565 -645 -815 -64 -155 -78 -227 -79 -383 -1 -161 12
-222 75 -352 93 -195 298 -323 589 -369 127 -20 454 -15 595 10 288 50 577
154 760 273 170 111 444 359 593 535 364 432 516 932 401 1320 -48 165 -228
340 -429 417 -141 55 -344 74 -525 51z m428 -192 c49 -14 92 -29 97 -34 31
-31 43 -300 20 -434 -80 -477 -476 -942 -1053 -1240 -440 -227 -886 -309
-1212 -223 -73 19 -197 76 -216 99 -8 10 -15 51 -17 113 -5 109 16 215 68 350
l31 79 72 12 c236 38 477 108 647 187 345 160 600 421 700 713 25 74 50 213
50 280 l0 45 108 28 c59 14 134 31 167 37 33 5 71 12 85 14 14 2 102 3 195 1
145 -2 183 -6 258 -27z m-923 -122 c0 -50 -33 -194 -61 -267 -62 -161 -210
-340 -384 -465 -105 -75 -310 -175 -460 -223 -116 -38 -372 -98 -381 -89 -9 9
98 148 114 148 35 0 253 80 343 126 135 67 233 136 325 228 133 133 194 246
194 361 l0 65 43 21 c64 34 251 119 260 119 4 0 7 -11 7 -24z"/>
</g>
</svg>
